<svg width="1029" height="1113" viewBox="0 0 1029 1113" fill="none" xmlns="http://www.w3.org/2000/svg">
<path d="M138.245 917.538L41.475 849.698C28.6855 840.738 18.2429 828.829 11.0313 814.978C3.81961 801.128 0.0511786 785.743 0.0449584 770.128V399.208C-1.17504 349.598 22.045 251.758 117.465 192.358C208.235 135.938 371.045 47.1276 391.805 35.8176C440.265 5.8176 548.465 -26.6024 659.705 35.0476L665.445 38.5976L745.865 94.0576C758.82 102.995 769.411 114.945 776.727 128.88C784.043 142.815 787.865 158.319 787.865 174.058V278.358L590.045 154.418C525.435 120.278 469.875 150.268 463.785 153.788L459.705 156.168C457.935 157.168 281.975 252.768 190.435 309.718C141.365 340.238 138.375 388.088 138.235 396.208L138.365 398.208H138.245V917.538Z" fill="#FCFCFC"/>
<path d="M501.775 1112.84C460.585 1112.84 414.775 1103.49 368.425 1077.84L362.695 1074.29L282.265 1018.82C269.31 1009.88 258.719 997.93 251.403 983.995C244.087 970.06 240.265 954.557 240.265 938.818V822.418L438.105 958.418C502.725 992.558 558.275 962.578 564.365 959.058L568.435 956.678C570.205 955.678 746.165 860.068 837.705 803.118C886.775 772.598 889.775 724.758 889.915 716.628L889.775 714.678H889.905V195.138L986.905 263.648C999.617 272.621 1009.99 284.515 1017.15 298.331C1024.31 312.146 1028.04 327.478 1028.04 343.038V713.638C1029.3 763.258 1006.04 861.088 910.675 920.448C819.895 976.908 657.075 1065.73 636.315 1077.03C608.045 1094.52 559.445 1112.84 501.775 1112.84Z" fill="#FCFCFC"/>
</svg>
