<svg width="286" height="308" viewBox="0 0 286 308" fill="none" xmlns="http://www.w3.org/2000/svg">
<g clip-path="url(#clip0_90_2)">
<path d="M38.6873 253.881L11.7924 235.082C8.23782 232.599 5.33556 229.299 3.33126 225.461C1.32695 221.623 0.279605 217.36 0.277876 213.032V110.247C-0.061194 96.5001 6.39225 69.3878 32.912 52.9276C58.1393 37.2932 103.389 12.6832 109.158 9.54912C122.627 1.23588 152.698 -7.74796 183.615 9.33575L185.21 10.3195L207.561 25.6879C211.161 28.1645 214.105 31.476 216.138 35.3375C218.171 39.199 219.234 43.4952 219.234 47.8565V76.7589L164.254 42.4141C146.298 32.9537 130.856 41.2641 129.163 42.2396L128.029 42.8991C127.538 43.1762 78.6336 69.6677 53.1923 85.449C39.5544 93.9063 38.7234 107.166 38.6845 109.416L38.7206 109.97H38.6873V253.881Z" fill="#1B1C1C" style="fill:#1B1C1C;fill:color(display-p3 0.1059 0.1098 0.1098);fill-opacity:1;"/>
<path d="M139.722 308C128.274 308 115.542 305.409 102.66 298.301L101.068 297.318L78.7142 281.946C75.1136 279.47 72.1702 276.158 70.1369 272.297C68.1036 268.435 67.0412 264.139 67.0413 259.778V227.522L122.026 265.209C139.986 274.669 155.425 266.362 157.117 265.386L158.248 264.727C158.74 264.45 207.644 237.955 233.086 222.174C246.723 213.717 247.557 200.46 247.596 198.207L247.557 197.667H247.593V53.698L274.552 72.6827C278.085 75.1693 280.967 78.4653 282.957 82.2936C284.947 86.1219 285.986 90.3705 285.986 94.6823V197.379C286.336 211.129 279.872 238.238 253.366 254.687C228.136 270.333 182.884 294.945 177.114 298.077C169.257 302.923 155.75 308 139.722 308Z" fill="#1B1C1C" style="fill:#1B1C1C;fill:color(display-p3 0.1059 0.1098 0.1098);fill-opacity:1;"/>
</g>
<defs>
<clipPath id="clip0_90_2">
<rect width="286" height="308" fill="white" style="fill:white;fill-opacity:1;"/>
</clipPath>
</defs>
</svg>
